<?xml version="1.0" encoding="UTF-8"?>
<svg xmlns="http://www.w3.org/2000/svg" xmlns:xlink="http://www.w3.org/1999/xlink" width="40px" height="px" viewBox="0 0 40 40" version="1.1">
<g id="surface1">
<path style=" stroke:none;fill-rule:nonzero;fill:rgb(70.196078%,70.196078%,70.196078%);fill-opacity:1;" d="M 6.992188 -0.132812 L 34.144531 -0.132812 C 37.738281 -0.132812 40.652344 3.167969 40.652344 7.234375 L 40.652344 32.707031 C 40.652344 36.773438 37.738281 40.070312 34.144531 40.070312 L 6.992188 40.070312 C 3.398438 40.070312 0.484375 36.773438 0.484375 32.707031 L 0.484375 7.234375 C 0.484375 3.167969 3.398438 -0.132812 6.992188 -0.132812 Z M 6.992188 -0.132812 "/>
<path style=" stroke:none;fill-rule:nonzero;fill:rgb(40%,40%,40%);fill-opacity:1;" d="M 22.964844 2.308594 L 26.546875 2.308594 C 30.140625 2.308594 33.054688 5.605469 33.054688 9.675781 L 33.054688 10.40625 C 33.054688 14.472656 30.140625 17.773438 26.546875 17.773438 L 22.964844 17.773438 C 19.367188 17.773438 16.453125 14.472656 16.453125 10.40625 L 16.453125 9.675781 C 16.453125 5.605469 19.367188 2.308594 22.964844 2.308594 Z M 22.964844 2.308594 "/>
<path style=" stroke:none;fill-rule:nonzero;fill:rgb(30.196078%,30.196078%,30.196078%);fill-opacity:1;" d="M 0.730469 24.894531 C 16.101562 8.710938 5.679688 10.40625 16.097656 8.574219 C 26.511719 6.738281 40.652344 40.070312 40.652344 40.070312 L 0.445312 39.96875 Z M 0.730469 24.894531 "/>
<path style=" stroke:none;fill-rule:nonzero;fill:rgb(100%,33.333333%,33.333333%);fill-opacity:1;" d="M 19.199219 22.078125 L 37.238281 22.078125 C 39.066406 22.078125 40.550781 23.5625 40.550781 25.390625 L 40.550781 28.441406 C 40.550781 30.273438 39.066406 31.757812 37.238281 31.757812 L 19.199219 31.757812 C 17.367188 31.757812 15.882812 30.273438 15.882812 28.441406 L 15.882812 25.390625 C 15.882812 23.5625 17.367188 22.078125 19.199219 22.078125 Z M 19.199219 22.078125 "/>
<path style=" stroke:none;fill-rule:nonzero;fill:rgb(100%,33.333333%,33.333333%);fill-opacity:1;" d="M 32.933594 17.789062 L 32.933594 35.828125 C 32.933594 37.65625 31.449219 39.140625 29.621094 39.140625 L 26.570312 39.140625 C 24.738281 39.140625 23.253906 37.65625 23.253906 35.828125 L 23.253906 17.789062 C 23.253906 15.957031 24.738281 14.472656 26.570312 14.472656 L 29.621094 14.472656 C 31.449219 14.472656 32.933594 15.957031 32.933594 17.789062 Z M 32.933594 17.789062 "/>
</g>
</svg>
