<?xml version="1.0" encoding="UTF-8" standalone="no"?>
<!-- Created with Inkscape (http://www.inkscape.org/) -->

<svg
   width="40"
   height="40"
   viewBox="0 0 10.583333 10.583334"
   version="1.1"
   id="svg5"
   xmlns="http://www.w3.org/2000/svg"
   xmlns:svg="http://www.w3.org/2000/svg">
  <defs
     id="defs2" />
  <path
     style="fill:#ffaaaa;fill-opacity:1;fill-rule:nonzero;stroke:none;stroke-width:1.18296;stroke-linecap:round;stroke-linejoin:round;stroke-miterlimit:4;stroke-dasharray:none;stroke-opacity:1"
     id="path13830-5-6"
     d="M 0,5.291667 A 5.291667,5.291667 0 0 1 -3.2666337,10.18053 5.291667,5.291667 0 0 1 -9.0334406,9.0334406 5.291667,5.291667 0 0 1 -10.18053,3.2666336 5.291667,5.291667 0 0 1 -5.291667,0 Z"
     transform="scale(-1,1)" />
  <path
     style="fill:#ff8080;fill-opacity:1;fill-rule:nonzero;stroke:none;stroke-width:1.18296;stroke-linecap:round;stroke-linejoin:round;stroke-miterlimit:4;stroke-dasharray:none;stroke-opacity:1"
     id="path13830-5"
     transform="scale(-1,1)"
     d="M 0,3.96875 A 3.96875,3.96875 0 0 1 -2.4499751,7.6353969 3.96875,3.96875 0 0 1 -6.7750801,6.77508 3.96875,3.96875 0 0 1 -7.6353969,2.4499751 3.96875,3.96875 0 0 1 -3.96875,0 Z" />
  <circle
     style="fill:#ff5555;fill-opacity:1;fill-rule:nonzero;stroke:none;stroke-width:1.52355;stroke-linecap:round;stroke-linejoin:round;stroke-miterlimit:4;stroke-dasharray:none;stroke-opacity:1"
     id="path13830"
     cx="2.6458335"
     cy="2.6458335"
     r="2.6458335" />
</svg>
