<?xml version="1.0" encoding="UTF-8" standalone="no"?>
<!-- Created with Inkscape (http://www.inkscape.org/) -->

<svg
   width="40"
   height="40"
   viewBox="0 0 10.583333 10.583334"
   version="1.1"
   id="svg5"
   xmlns="http://www.w3.org/2000/svg"
   xmlns:svg="http://www.w3.org/2000/svg">
  <defs
     id="defs2" />
  <g
     id="layer1">
    <rect
       style="fill:#00ffff;fill-opacity:1;stroke:none;stroke-width:0.470311;stroke-linejoin:round;stroke-dashoffset:73.9276;stroke-opacity:1"
       id="rect30558"
       width="1.5127584"
       height="4.010118"
       x="0"
       y="5.9898815"
       rx="0"
       ry="0" />
    <rect
       style="fill:#00ffff;fill-opacity:1;stroke:none;stroke-width:0.467984;stroke-linejoin:round;stroke-dashoffset:73.9276;stroke-opacity:1"
       id="rect30558-0"
       width="1.0134523"
       height="5.9267416"
       x="1.7779189"
       y="4.0732579"
       rx="0"
       ry="0" />
    <rect
       style="fill:#00ffff;fill-opacity:1;stroke:none;stroke-width:0.619711;stroke-linejoin:round;stroke-dashoffset:73.9276;stroke-opacity:1"
       id="rect30558-0-9"
       width="1.3229166"
       height="7.9617157"
       x="3.4395833"
       y="2"
       rx="0"
       ry="0" />
    <rect
       style="fill:#00ffff;fill-opacity:1;stroke:none;stroke-width:0.576212;stroke-linejoin:round;stroke-dashoffset:73.9276;stroke-opacity:1"
       id="rect30558-0-3"
       width="1.3229166"
       height="6.8831515"
       x="5.3337569"
       y="3.1168482"
       rx="0"
       ry="0" />
    <rect
       style="fill:#00ffff;fill-opacity:1;stroke:none;stroke-width:0.423366;stroke-linejoin:round;stroke-dashoffset:73.9276;stroke-opacity:1"
       id="rect30558-0-3-6"
       width="1.3229166"
       height="3.7158215"
       x="7.0555553"
       y="6.2841778"
       rx="0"
       ry="0" />
    <rect
       style="fill:#00ffff;fill-opacity:1;stroke:none;stroke-width:0.350345;stroke-linejoin:round;stroke-dashoffset:73.9276;stroke-opacity:1"
       id="rect30558-0-3-0"
       width="1.7638888"
       height="1.9084266"
       x="8.8194447"
       y="8.0915737"
       rx="0"
       ry="0" />
    <rect
       style="fill:#ff5555;fill-opacity:1;stroke:none;stroke-width:0.742413;stroke-linejoin:round;stroke-dashoffset:73.9276;stroke-opacity:1"
       id="rect29560"
       width="10.861532"
       height="1.5875"
       x="0"
       y="9.5249996"
       rx="0"
       ry="0" />
    <rect
       style="fill:#ff8080;fill-opacity:1;stroke:none;stroke-width:0.600001;stroke-linejoin:round;stroke-dashoffset:73.9276;stroke-opacity:1"
       id="rect33470"
       width="6.2160306"
       height="0.74585932"
       x="1.9942662"
       y="0.86736333" />
    <path
       style="fill:#ff8080;fill-opacity:1;stroke:none;stroke-width:2.26772;stroke-linejoin:round;stroke-dashoffset:73.9276;stroke-opacity:1"
       id="path33494"
       d="m 26.51304,5.4443873 c -0.595951,-0.3753058 -0.284891,-8.4685678 0.338109,-8.7970239 0.623,-0.328456 7.476441,3.98756127 7.449392,4.6913232 -0.02705,0.7037619 -7.19155,4.4810066 -7.787501,4.1057007 z"
       transform="matrix(0.26458333,0,0,0.26458333,0.90683138,0.93578514)" />
    <path
       style="fill:#ff8080;fill-opacity:1;stroke:none;stroke-width:2.26772;stroke-linejoin:round;stroke-dashoffset:73.9276;stroke-opacity:1"
       id="path33494-6"
       transform="matrix(-0.26458333,0,0,0.26458333,9.7038887,0.88973753)"
       d="m 26.51304,5.4443873 c -0.595951,-0.3753058 -0.284891,-8.4685678 0.338109,-8.7970239 0.623,-0.328456 7.476441,3.98756127 7.449392,4.6913232 -0.02705,0.7037619 -7.19155,4.4810066 -7.787501,4.1057007 z" />
  </g>
</svg>
