<?xml version="1.0" encoding="UTF-8" standalone="no"?>
<!-- Created with Inkscape (http://www.inkscape.org/) -->

<svg
   width="40"
   height="40"
   viewBox="0 0 10.583333 10.583334"
   version="1.1"
   id="svg5"
   xmlns="http://www.w3.org/2000/svg"
   xmlns:svg="http://www.w3.org/2000/svg">
  <defs
     id="defs2" />
  <g
     id="layer1">
    <rect
       style="fill:#00ffff;fill-opacity:1;stroke:none;stroke-width:0.725327;stroke-linejoin:round;stroke-dashoffset:73.9276;stroke-opacity:1"
       id="rect28900"
       width="0.66178799"
       height="6.2607741"
       x="0.048879076"
       y="4.2522826"
       rx="1.5615814"
       ry="1.5109121" />
    <rect
       style="fill:#00ffff;fill-opacity:1;stroke:none;stroke-width:0.808798;stroke-linejoin:round;stroke-dashoffset:73.9276;stroke-opacity:1"
       id="rect28902"
       width="0.8054716"
       height="9.606739"
       x="1.2494359"
       y="1.071844"
       rx="1.5615814"
       ry="1.8786777" />
    <rect
       style="fill:#00ffff;fill-opacity:1;stroke:none;stroke-width:0.858997;stroke-linejoin:round;stroke-dashoffset:73.9276;stroke-opacity:1"
       id="rect28904"
       width="0.83996171"
       height="6.6963048"
       x="3.1114583"
       y="3.9000061"
       rx="1.5615814"
       ry="2.1191206" />
    <rect
       style="fill:#00ffff;fill-opacity:1;stroke:none;stroke-width:0.600001;stroke-linejoin:round;stroke-dashoffset:73.9276;stroke-opacity:1"
       id="rect29030"
       width="0.7721892"
       height="4.4596577"
       x="4.9795899"
       y="6.1435452"
       rx="1.5615814"
       ry="1.0338937" />
    <rect
       style="fill:#00ffff;fill-opacity:1;stroke:none;stroke-width:0.889409;stroke-linejoin:round;stroke-dashoffset:73.9276;stroke-opacity:1"
       id="rect29034"
       width="0.93873137"
       height="6.5256934"
       x="6.8209915"
       y="4.036201"
       rx="1.5615814"
       ry="2.2718267" />
    <rect
       style="fill:#00ffff;fill-opacity:1;stroke:none;stroke-width:0.600001;stroke-linejoin:round;stroke-dashoffset:73.9276;stroke-opacity:1"
       id="rect29184"
       width="0.6667605"
       height="2.843545"
       x="8.521863"
       y="7.7916965"
       rx="1.5615814"
       ry="2.271826" />
    <rect
       style="fill:#ff5555;fill-opacity:1;stroke:none;stroke-width:0.425568;stroke-linejoin:round;stroke-dashoffset:73.9276;stroke-opacity:1"
       id="rect29288"
       width="5.2916665"
       height="0.79374999"
       x="3.175"
       y="1.190625"
       rx="1.4564344"
       ry="0.79374999" />
    <path
       style="fill:#ff5555;fill-opacity:1;stroke:none;stroke-width:2.26772;stroke-linejoin:round;stroke-dashoffset:73.9276;stroke-opacity:1"
       id="path29312-9"
       transform="matrix(-0.20507783,0.00965811,0.01056638,0.18744961,8.825624,1.3083803)"
       d="M 20.613889,7.4523527 C 19.606812,6.9570443 18.749038,-5.9207556 19.681526,-6.545256 20.614014,-7.1697564 32.195403,-1.4737106 32.269992,-0.35390188 32.344581,0.76590681 21.620966,7.947661 20.613889,7.4523527 Z" />
    <path
       style="fill:#ff5555;fill-opacity:1;stroke:none;stroke-width:2.26772;stroke-linejoin:round;stroke-dashoffset:73.9276;stroke-opacity:1"
       id="path29312-9-1"
       transform="matrix(0.20507783,0.00965811,-0.01056638,0.18744961,2.9798291,1.3083803)"
       d="M 20.613889,7.4523527 C 19.606812,6.9570443 18.749038,-5.9207556 19.681526,-6.545256 20.614014,-7.1697564 32.195403,-1.4737106 32.269992,-0.35390188 32.344581,0.76590681 21.620966,7.947661 20.613889,7.4523527 Z" />
    <rect
       style="fill:#ff5555;fill-opacity:1;stroke:none;stroke-width:0.732843;stroke-linejoin:round;stroke-dashoffset:73.9276;stroke-opacity:1"
       id="rect29560"
       width="10.583333"
       height="1.5875"
       x="-6.9388939e-18"
       y="9.5249996"
       rx="0"
       ry="0" />
  </g>
</svg>
