<?xml version="1.0" encoding="UTF-8" standalone="no"?>
<!-- Created with Inkscape (http://www.inkscape.org/) -->

<svg
   width="40"
   height="40"
   viewBox="0 0 10.583333 10.583334"
   version="1.1"
   id="svg840"
   xmlns="http://www.w3.org/2000/svg"
   xmlns:svg="http://www.w3.org/2000/svg">
  <defs
     id="defs837" />
  <g
     id="layer1">
    <g
       id="g5012"
       transform="matrix(0,-1,-1,0,10.519344,10.189733)">
      <rect
         style="fill:#008080;stroke-width:1.94948;stroke-dashoffset:73.9276"
         id="rect923"
         width="0.57227272"
         height="9.3247604"
         x="5.0709057"
         y="0.71434677"
         rx="0"
         ry="0" />
      <rect
         style="fill:#ff5555;stroke-width:5.30123;stroke-dashoffset:73.9276"
         id="rect1293"
         width="3.6304388"
         height="9.5875645"
         x="0.70157725"
         y="0.42883062"
         rx="0.86533564"
         ry="2.0594978" />
      <rect
         style="fill:none;stroke:#ff5555;stroke-width:0.659222;stroke-miterlimit:4;stroke-dasharray:none;stroke-dashoffset:73.9276;stroke-opacity:1"
         id="rect1295"
         width="3.4146395"
         height="9.0359879"
         x="6.2973242"
         y="0.71068442"
         rx="0.73325604"
         ry="1.9464804" />
      <path
         style="fill:#008080;stroke:none;stroke-width:1.76882;stroke-miterlimit:4;stroke-dasharray:none;stroke-dashoffset:73.9276;stroke-opacity:1"
         id="path3560"
         d="m 23.577532,18.346686 c -0.464074,-0.3087 -0.05807,-6.70558 0.441312,-6.95313 0.499379,-0.24755 5.836236,3.302502 5.800931,3.858752 -0.03531,0.556251 -5.778168,3.403078 -6.242243,3.094378 z"
         transform="matrix(0.18295273,-0.19113512,0.19113512,0.18295273,0.23469768,6.7419771)" />
      <path
         style="fill:#008080;stroke:none;stroke-width:1.76882;stroke-miterlimit:4;stroke-dasharray:none;stroke-dashoffset:73.9276;stroke-opacity:1"
         id="path3744"
         d="M 6.3300403,0.80106246 A 1.0173229,0.35926646 0 0 1 5.3773488,1.1596032 1.0173229,0.35926646 0 0 1 4.3036067,0.84661923 1.0173229,0.35926646 0 0 1 5.1198668,0.44831028 1.0173229,0.35926646 0 0 1 6.2973243,0.71068444" />
      <path
         style="fill:#008080;stroke:none;stroke-width:1.76882;stroke-miterlimit:4;stroke-dasharray:none;stroke-dashoffset:73.9276;stroke-opacity:1"
         id="path3744-3"
         d="M 6.3300403,9.8370504 A 1.0173229,0.35926646 0 0 1 5.3773488,10.195591 1.0173229,0.35926646 0 0 1 4.3036067,9.8826072 1.0173229,0.35926646 0 0 1 5.1198668,9.4842983 1.0173229,0.35926646 0 0 1 6.2973243,9.7466724" />
      <path
         style="fill:none;stroke:#000000;stroke-width:0.264583px;stroke-linecap:butt;stroke-linejoin:miter;stroke-opacity:1"
         d="m 2.5245737,4.9348313 c 0,0 0.4668419,2.5219297 2.8640444,1.287341 C 7.7858204,4.9875834 7.844289,4.9375747 7.844289,4.9375747"
         id="path3971" />
      <path
         style="fill:none;stroke:#000000;stroke-width:0.264583px;stroke-linecap:butt;stroke-linejoin:miter;stroke-opacity:1"
         d="m 2.6934149,4.4448578 c 0,0 0.505374,2.5144916 2.8834061,1.2433691 C 7.9548529,4.4171042 8.0125495,4.3662068 8.0125495,4.3662068"
         id="path3971-6" />
      <path
         style="fill:none;stroke:#000000;stroke-width:0.264583px;stroke-linecap:butt;stroke-linejoin:miter;stroke-opacity:1"
         d="M 2.6934149,4.4448579 2.5245737,4.9348313 v 0"
         id="path4302" />
      <path
         style="fill:none;stroke:#000000;stroke-width:0.264583px;stroke-linecap:butt;stroke-linejoin:miter;stroke-opacity:1"
         d="M 8.0125495,4.3662068 7.8442888,4.9375747"
         id="path4304" />
      <path
         style="fill:#008080;stroke:none;stroke-width:0.145381;stroke-miterlimit:4;stroke-dasharray:none;stroke-dashoffset:73.9276;stroke-opacity:1"
         d="m 25.068321,20.231503 c 0,-0.237339 0.07067,-0.285116 1.828189,-1.235951 l 1.828189,-0.989068 0.109737,0.209441 c 0.06036,0.115192 0.0976,0.21877 0.08276,0.230173 -0.01484,0.0114 -0.507799,0.271998 -1.095466,0.5791 -0.587667,0.307103 -1.447593,0.759703 -1.910946,1.005778 l -0.84246,0.44741 z"
         id="path4423"
         transform="scale(0.26458333)" />
      <path
         style="fill:#008080;stroke:none;stroke-width:0.145381;stroke-miterlimit:4;stroke-dasharray:none;stroke-dashoffset:73.9276;stroke-opacity:1"
         d="m 22.602585,21.500483 c 0,-0.170317 0.161914,-0.285225 1.158134,-0.821912 0.636974,-0.343153 1.173272,-0.623914 1.191773,-0.623914 0.0185,0 0.03361,0.101711 0.03358,0.226026 -5.3e-5,0.207013 -0.09586,0.27615 -1.138908,0.821912 -0.626367,0.327737 -1.162639,0.595886 -1.191715,0.595886 -0.02908,0 -0.05286,-0.0891 -0.05286,-0.197998 z"
         id="path4462"
         transform="scale(0.26458333)" />
      <path
         style="fill:#008080;stroke:none;stroke-width:0.145381;stroke-miterlimit:4;stroke-dasharray:none;stroke-dashoffset:73.9276;stroke-opacity:1"
         d="m 22.684776,21.4986 c 0,-0.15518 0.272677,-0.340369 1.328583,-0.902307 0.834215,-0.443956 1.183381,-0.505672 0.823213,-0.145505 -0.144032,0.144032 -1.984827,1.165502 -2.100356,1.165502 -0.02829,0 -0.05144,-0.05296 -0.05144,-0.11769 z"
         id="path4501"
         transform="scale(0.26458333)" />
      <path
         style="fill:#008080;stroke:none;stroke-width:0.145381;stroke-miterlimit:4;stroke-dasharray:none;stroke-dashoffset:73.9276;stroke-opacity:1"
         d="m 21.369716,22.158415 c 0,-0.179214 0.08735,-0.255283 0.575339,-0.501029 l 0.575338,-0.289736 v 0.205328 c 0,0.168519 -0.09209,0.253321 -0.513695,0.473042 -0.282532,0.147243 -0.541434,0.280309 -0.575338,0.295702 -0.0339,0.01539 -0.06164,-0.0671 -0.06164,-0.183307 z"
         id="path4540"
         transform="scale(0.26458333)" />
      <path
         style="fill:#008080;stroke:none;stroke-width:0.145381;stroke-miterlimit:4;stroke-dasharray:none;stroke-dashoffset:73.9276;stroke-opacity:1"
         d="m 14.342367,25.076763 c -0.777424,-0.213288 -1.261775,-0.431372 -1.859411,-0.837219 -1.381733,-0.938317 -2.454022,-2.496621 -3.1197179,-4.533728 -0.2927434,-0.89583 -0.2956127,-0.966219 -0.039386,-0.966219 0.3013826,0 0.329699,-0.143155 0.040865,-0.206594 -0.1412126,-0.03102 -0.2373508,-0.09755 -0.217485,-0.150522 0.019583,-0.05221 0.1608898,-0.454958 0.3140159,-0.894985 0.248974,-0.715458 0.2957917,-0.793864 0.4427936,-0.741546 0.09041,0.03218 0.2938334,0.05184 0.4520514,0.04369 l 0.28767,-0.01481 0.189059,0.633071 c 0.590743,1.978113 1.930633,3.763327 3.345163,4.456957 0.83752,0.410687 1.42423,0.51699 2.589023,0.469093 1.221165,-0.05022 2.072134,-0.273131 3.328744,-0.871981 0.87466,-0.416828 5.925472,-3.109948 8.374439,-4.465295 l 1.470376,-0.81376 0.219041,0.209855 c 0.120473,0.11542 0.264411,0.209855 0.319862,0.209855 0.05545,0 0.120664,0.05171 0.144916,0.114908 0.04451,0.115994 -0.42962,1.84353 -0.538886,1.963474 -0.03242,0.03558 -0.157426,0.02725 -0.2778,-0.01851 -0.261801,-0.09954 -0.277753,-0.03727 -0.05201,0.203016 l 0.166849,0.177604 -1.790126,0.947068 c -3.403689,1.800723 -8.053952,4.179223 -8.720578,4.46037 -1.24462,0.524915 -2.067262,0.709082 -3.343451,0.748507 -0.957553,0.02958 -1.247239,0.0091 -1.726016,-0.122297 z m 3.36984,-0.992402 c 0.361641,-0.09745 0.971911,-0.310863 1.356155,-0.474263 0.664026,-0.282377 5.732653,-2.873646 8.773144,-4.485155 l 1.41703,-0.751049 0.1202,-0.410041 c 0.06611,-0.225522 0.10937,-0.42087 0.09613,-0.434107 -0.01324,-0.01324 -2.001992,1.040802 -4.419457,2.342306 -2.417465,1.301505 -4.678063,2.485028 -5.02355,2.630051 -3.170684,1.330937 -5.810903,1.003382 -7.790263,-0.966486 -0.793911,-0.790104 -1.179788,-1.338754 -1.734897,-2.466725 -0.350458,-0.712122 -0.388912,-0.76073 -0.44019,-0.556421 -0.1279788,0.509909 0.748847,2.60633 1.507726,3.604853 0.819586,1.078399 1.755389,1.738219 2.907994,2.050379 0.793469,0.214894 2.263959,0.176952 3.229974,-0.08334 z"
         id="path4579"
         transform="scale(0.26458333)" />
      <path
         style="fill:#008080;stroke:none;stroke-width:0.145381;stroke-miterlimit:4;stroke-dasharray:none;stroke-dashoffset:73.9276;stroke-opacity:1"
         d="m 16.438243,23.830285 c 0,-0.223183 0.02871,-0.405788 0.0638,-0.405788 0.474914,0 2.088231,-0.295735 2.522581,-0.462411 0.09848,-0.03779 0.125929,0.01502 0.125929,0.242234 0,0.277959 -0.02021,0.298119 -0.466131,0.464959 -0.545112,0.203953 -1.498264,0.461348 -1.937962,0.52334 l -0.308217,0.04345 z"
         id="path4618"
         transform="scale(0.26458333)" />
      <path
         style="fill:#008080;stroke:none;stroke-width:0.145381;stroke-miterlimit:4;stroke-dasharray:none;stroke-dashoffset:73.9276;stroke-opacity:1"
         d="m 14.5975,24.115457 c -0.453035,-0.109622 -1.268267,-0.475554 -1.649579,-0.740446 -0.350402,-0.243419 -1.143522,-1.079197 -1.450217,-1.528217 -0.442162,-0.647353 -0.869407,-1.521094 -1.15068,-2.353209 -0.351658,-1.040344 -0.287729,-1.063529 0.226321,-0.08208 0.552701,1.055241 1.30727,2.03293 2.014835,2.610605 0.93391,0.762469 1.894351,1.141606 3.459655,1.36571 l 0.308217,0.04413 v 0.407232 0.407232 l -0.636982,-0.0068 c -0.35034,-0.0038 -0.855047,-0.05961 -1.12157,-0.124104 z"
         id="path4657"
         transform="scale(0.26458333)" />
    </g>
  </g>
</svg>
