<?xml version="1.0" encoding="UTF-8" standalone="no"?>
<!-- Created with Inkscape (http://www.inkscape.org/) -->

<svg
   width="40"
   height="40"
   viewBox="0 0 10.583333 10.583334"
   version="1.1"
   id="svg2788"
   xmlns="http://www.w3.org/2000/svg"
   xmlns:svg="http://www.w3.org/2000/svg">
  <defs
     id="defs2785" />
  <g
     id="layer1">
    <g
       id="g9569"
       transform="matrix(1.0102611,0,0,1.0112785,-0.03870954,-0.04975371)">
      <path
         style="fill:#008080;stroke:#ff8080;stroke-width:0.0393092;stroke-linejoin:round;stroke-miterlimit:4;stroke-dasharray:none;stroke-dashoffset:0;stroke-opacity:1"
         d="M 38.445724,28.351131 C 37.76727,28.038077 35.916941,27.214845 34.333882,26.521727 30.330153,24.768754 30.332667,24.76999 27.713816,23.268263 24.970315,21.695058 22.660105,20.503962 21.794722,20.2165 l -0.614818,-0.20423 0.532581,-0.100357 c 1.251725,-0.235871 3.053846,-0.820807 6.248041,-2.028003 0.927221,-0.350429 2.055921,-0.763575 2.508224,-0.918104 0.847551,-0.289565 9.165394,-2.441311 9.221255,-2.38545 0.01721,0.01721 0.02184,3.250748 0.01028,7.185631 l -0.02101,7.154332 z"
         id="path8691"
         transform="scale(0.26458333)" />
      <g
         id="g9238">
        <path
           style="fill:#ff0000;stroke:#ff8080;stroke-width:0.0393092;stroke-linejoin:round;stroke-miterlimit:4;stroke-dasharray:none;stroke-dashoffset:0;stroke-opacity:1"
           d="M 18.585526,18.816877 C 17.738993,18.231505 14.826484,16.779475 12.088816,15.577944 10.256349,14.773697 9.7800436,14.517632 6.8256579,12.74844 5.0390625,11.678562 2.9666941,10.458362 2.2203947,10.036882 1.4740954,9.615403 0.70620888,9.1814762 0.51398026,9.0726012 L 0.16447368,8.8746456 V 5.6264809 c 0,-3.0451988 0.009905,-3.2675807 0.15851837,-3.5588865 C 0.63811741,1.4498977 1.3765454,0.94149317 2.4671053,0.59138158 3.6191642,0.22152641 3.8616171,0.20559211 8.3371941,0.20559211 h 4.2664699 l 0.716228,1.89144739 c 0.393925,1.040296 1.202412,3.1126644 1.796638,4.6052631 0.935817,2.3506168 1.147343,2.9724581 1.580521,4.6463814 1.014782,3.921406 1.665334,5.998218 2.257831,7.207864 0.196119,0.400395 0.350521,0.731524 0.343118,0.735841 -0.0074,0.0043 -0.328016,-0.209663 -0.712474,-0.475512 z"
           id="path8005"
           transform="scale(0.26458333)" />
        <path
           style="fill:#ffff00;stroke:#ff8080;stroke-width:0.0393092;stroke-linejoin:round;stroke-miterlimit:4;stroke-dasharray:none;stroke-dashoffset:0;stroke-opacity:1"
           d="M 19.833074,17.944618 C 19.571364,16.748208 18.968006,14.919993 17.886937,12.047697 16.739705,8.9996118 16.752203,9.0410296 15.546372,4.2910858 15.003027,2.1507718 14.537211,0.36520436 14.511225,0.32315816 c -0.02897,-0.0468819 2.719764,-0.0764476 7.107358,-0.0764476 4.324974,0 7.17331,0.0302652 7.2019,0.0765244 0.02601,0.0420884 -0.289689,0.82847824 -0.701558,1.74753284 -0.411869,0.9190547 -1.268091,2.855219 -1.902716,4.3025875 -1.421877,3.2428289 -1.512569,3.4237977 -3.090955,6.1677627 -1.514082,2.632176 -2.619068,4.778931 -2.901357,5.636721 l -0.204124,0.620272 z"
           id="path8391"
           transform="scale(0.26458333)" />
        <path
           style="fill:#00ff00;stroke:#ff8080;stroke-width:0.0393092;stroke-linejoin:round;stroke-miterlimit:4;stroke-dasharray:none;stroke-dashoffset:0;stroke-opacity:1"
           d="m 20.970395,19.050022 c 0,-0.01591 0.166815,-0.282906 0.3707,-0.593327 0.490831,-0.747304 1.649611,-3.045994 2.588237,-5.134327 1.469978,-3.270528 1.215513,-2.800267 4.78369,-8.8404601 0.748139,-1.2664474 1.597262,-2.7370738 1.886939,-3.2680586 l 0.526684,-0.9654271 2.055921,-1.8093e-4 c 2.931733,-2.5822e-4 3.974381,0.14946852 5.136904,0.73767183 0.557065,0.2818591 1.181421,0.8204779 1.308555,1.1288638 0.06839,0.1659037 0.08845,1.6407944 0.07282,5.3545692 l -0.02157,5.1255959 -1.80921,0.683447 c -0.995066,0.375896 -2.530839,0.968592 -3.412829,1.317103 -3.07195,1.213853 -4.248789,1.616367 -6.373355,2.179876 -3.279915,0.869947 -5.714214,1.643099 -6.637892,2.108245 -0.379623,0.191171 -0.475595,0.224751 -0.475594,0.166409 z"
           id="path8615"
           transform="scale(0.26458333)" />
        <path
           style="fill:#00ffff;stroke:#ff8080;stroke-width:0.0393092;stroke-linejoin:round;stroke-miterlimit:4;stroke-dasharray:none;stroke-dashoffset:0;stroke-opacity:1"
           d="m 27.389637,39.564831 c -0.04579,-0.08556 -0.246627,-0.594401 -0.446304,-1.130757 -0.199677,-0.536356 -0.871416,-2.270423 -1.492754,-3.853482 -1.427845,-3.637898 -1.564157,-4.038087 -2.308037,-6.776028 -0.995096,-3.662568 -1.580676,-5.499202 -2.046284,-6.418036 -0.115979,-0.228873 -0.181998,-0.416133 -0.14671,-0.416133 0.03529,0 0.25569,0.128983 0.489781,0.286629 0.94151,0.63405 3.464916,1.891593 6.521197,3.249849 1.663632,0.739342 2.393087,1.139753 6.208882,3.40817 1.537829,0.91421 3.415439,2.010816 4.172467,2.436901 l 1.376414,0.774701 5.76e-4,3.166118 c 4.11e-4,2.062911 -0.03111,3.280738 -0.09041,3.495066 -0.18053,0.652552 -1.078807,1.248843 -2.529793,1.679316 l -0.853605,0.25325 h -4.386083 c -4.21818,0 -4.38927,-0.006 -4.469337,-0.155564 z"
           id="path8767"
           transform="scale(0.26458333)" />
        <path
           style="fill:#0000ff;stroke:#ff8080;stroke-width:0.0393092;stroke-linejoin:round;stroke-miterlimit:4;stroke-dasharray:none;stroke-dashoffset:0;stroke-opacity:1"
           d="m 11.101974,39.683333 c 0,-0.02038 0.226501,-0.529224 0.503335,-1.130757 0.276835,-0.601532 1.075672,-2.407428 1.775195,-4.013102 1.68412,-3.865704 1.940939,-4.392759 3.245818,-6.661185 1.886474,-3.279482 2.870657,-5.202081 3.199387,-6.25 0.137465,-0.438205 0.143668,-0.444613 0.199057,-0.205592 0.464385,2.003975 1.090777,3.940788 2.266144,7.006954 0.409117,1.067262 0.889177,2.462254 1.066799,3.099985 0.573072,2.057545 2.107078,8.109744 2.065942,8.15088 -0.05031,0.05031 -14.321677,0.05312 -14.321677,0.0028 z"
           id="path8843"
           transform="scale(0.26458333)" />
        <path
           style="fill:#800080;stroke:#ff8080;stroke-width:0.0393092;stroke-linejoin:round;stroke-miterlimit:4;stroke-dasharray:none;stroke-dashoffset:0;stroke-opacity:1"
           d="M 3.7766931,39.639746 C 2.5570295,39.48258 1.2024187,38.874137 0.61325159,38.21884 L 0.24549083,37.809803 0.26665993,32.621924 0.28782903,27.434046 0.8223685,27.232881 C 1.1163651,27.12224 2.6336349,26.534449 4.1940789,25.926678 8.826338,24.122479 9.7284893,23.806006 11.844818,23.24281 c 3.37727,-0.898757 5.835126,-1.686231 6.800957,-2.178961 0.189411,-0.09663 0.363614,-0.175691 0.387119,-0.175691 0.02351,0 -0.122098,0.254807 -0.323562,0.566238 -0.583677,0.902274 -1.507807,2.738748 -2.715279,5.395933 -1.355842,2.983689 -1.526053,3.307391 -3.377694,6.423553 -1.59717,2.687906 -2.9607916,5.02501 -3.4374429,5.891414 l -0.3053865,0.555099 -2.3191662,-0.01078 c -1.2755414,-0.0059 -2.5254929,-0.03737 -2.7776703,-0.06987 z"
           id="path8919"
           transform="scale(0.26458333)" />
        <path
           style="fill:#ff00ff;stroke:#ff8080;stroke-width:0.0393092;stroke-linejoin:round;stroke-miterlimit:4;stroke-dasharray:none;stroke-dashoffset:0;stroke-opacity:1"
           d="m 0.29497914,25.43204 c -0.0626998,-0.0627 -0.0633322,-14.330066 -6.3521e-4,-14.330066 0.0261984,0 0.90510457,0.385317 1.95312497,0.856261 1.0480204,0.470943 2.9231725,1.298901 4.1670048,1.839906 2.8970798,1.260084 3.7684903,1.669067 4.3898163,2.060293 2.612416,1.644938 7.237262,4.022858 7.879377,4.051277 0.160549,0.0071 0.151789,0.01894 -0.05702,0.07706 -0.135691,0.03776 -0.52426,0.1304 -0.863487,0.205856 -0.854235,0.190013 -3.399405,1.043938 -5.509869,1.848606 -2.6732117,1.01923 -3.4009502,1.241401 -7.4284675,2.267833 -2.0430432,0.520679 -3.88718778,0.997214 -4.09809894,1.058966 -0.21091115,0.06175 -0.40519568,0.09056 -0.43174342,0.06401 z"
           id="path8995"
           transform="scale(0.26458333)" />
      </g>
    </g>
  </g>
</svg>
