<?xml version="1.0" encoding="UTF-8" standalone="no"?>
<!-- Created with Inkscape (http://www.inkscape.org/) -->

<svg
   width="30mm"
   height="30mm"
   viewBox="0 0 30 30"
   version="1.1"
   id="svg5"
   inkscape:version="1.1.2 (0a00cf5339, 2022-02-04)"
   sodipodi:docname="logo_p.svg"
   xmlns:inkscape="http://www.inkscape.org/namespaces/inkscape"
   xmlns:sodipodi="http://sodipodi.sourceforge.net/DTD/sodipodi-0.dtd"
   xmlns="http://www.w3.org/2000/svg"
   xmlns:svg="http://www.w3.org/2000/svg">
  <sodipodi:namedview
     id="namedview7"
     pagecolor="#ffffff"
     bordercolor="#666666"
     borderopacity="1.0"
     inkscape:pageshadow="2"
     inkscape:pageopacity="0.0"
     inkscape:pagecheckerboard="0"
     inkscape:document-units="mm"
     showgrid="false"
     width="30mm"
     inkscape:zoom="4.6464848"
     inkscape:cx="80.813779"
     inkscape:cy="112.98864"
     inkscape:window-width="1366"
     inkscape:window-height="739"
     inkscape:window-x="0"
     inkscape:window-y="0"
     inkscape:window-maximized="1"
     inkscape:current-layer="layer1" />
  <defs
     id="defs2" />
  <g
     inkscape:label="Capa 1"
     inkscape:groupmode="layer"
     id="layer1">
    <path
       style="fill:#ff5555;stroke-width:7.92899843;stroke-dashoffset:73.9276;fill-opacity:1;stroke:none;stroke-opacity:1;stroke-miterlimit:4;stroke-dasharray:none"
       id="path858"
       sodipodi:type="arc"
       sodipodi:cx="3.7784796"
       sodipodi:cy="3.6190434"
       sodipodi:rx="3.3318291"
       sodipodi:ry="3.3234475"
       sodipodi:start="0"
       sodipodi:end="6.0288908"
       sodipodi:open="true"
       sodipodi:arc-type="arc"
       d="M 7.1103086,3.6190434 A 3.3318291,3.3234475 0 0 1 3.9901534,6.935777 3.3318291,3.3234475 0 0 1 0.47354612,4.0404729 3.3318291,3.3234475 0 0 1 3.1468756,0.35585716 3.3318291,3.3234475 0 0 1 7.0031604,2.7829882" />
    <rect
       style="fill:none;stroke:#ff5655;stroke-width:0.523;stroke-miterlimit:4;stroke-dasharray:none;stroke-dashoffset:73.9276;stroke-opacity:1"
       id="rect994"
       width="5.7778993"
       height="23.94665"
       x="0.87933016"
       y="8.1495285"
       rx="2.2012546"
       ry="2.9446239" />
    <rect
       style="fill:none;stroke:#ff5655;stroke-width:0.503;stroke-miterlimit:4;stroke-dasharray:none;stroke-dashoffset:73.9276;stroke-opacity:1"
       id="rect994-5"
       width="5.8003602"
       height="14.835829"
       x="12.142558"
       y="16.281105"
       rx="2.2098117"
       ry="1.8243028" />
    <rect
       style="fill:none;fill-opacity:1;stroke:#008080;stroke-width:0.528;stroke-miterlimit:4;stroke-dasharray:none;stroke-dashoffset:73.9276;stroke-opacity:1"
       id="rect994-3"
       width="5.772809"
       height="24.167652"
       x="23.5679"
       y="8.4342175"
       rx="2.1993153"
       ry="2.9717999" />
    <path
       style="fill:#008080;stroke-width:12.7294;stroke-dashoffset:73.9276"
       id="path858-6"
       sodipodi:type="arc"
       sodipodi:cx="26.223862"
       sodipodi:cy="3.6904759"
       sodipodi:rx="3.3318291"
       sodipodi:ry="3.3234475"
       sodipodi:start="0"
       sodipodi:end="6.0288908"
       sodipodi:open="true"
       sodipodi:arc-type="arc"
       d="M 29.555691,3.6904759 A 3.3318291,3.3234475 0 0 1 26.435536,7.0072096 3.3318291,3.3234475 0 0 1 22.918928,4.1119055 3.3318291,3.3234475 0 0 1 25.592258,0.42728977 3.3318291,3.3234475 0 0 1 29.448543,2.8544206" />
    <path
       style="fill:none;fill-opacity:1;stroke:#008080;stroke-width:0.529;stroke-miterlimit:4;stroke-dasharray:none;stroke-dashoffset:73.9276;stroke-opacity:1"
       id="path11925-6"
       sodipodi:type="arc"
       sodipodi:cx="-26.870586"
       sodipodi:cy="-15.771844"
       sodipodi:rx="11.646167"
       sodipodi:ry="7.4331174"
       sodipodi:start="6.2270288"
       sodipodi:end="1.5846949"
       sodipodi:arc-type="arc"
       transform="scale(-1)"
       d="m -15.242778,-16.189042 a 11.646167,7.4331174 0 0 1 -3.220577,5.560987 11.646167,7.4331174 0 0 1 -8.569091,2.2886106"
       sodipodi:open="true" />
    <path
       style="fill:none;fill-opacity:1;stroke:#ff5555;stroke-width:0.629;stroke-miterlimit:4;stroke-dasharray:none;stroke-dashoffset:73.9276;stroke-opacity:1"
       id="path11925-6-2"
       sodipodi:type="arc"
       sodipodi:cx="3.7374597"
       sodipodi:cy="-15.975437"
       sodipodi:rx="11.515402"
       sodipodi:ry="7.9141383"
       sodipodi:start="6.2270288"
       sodipodi:end="1.5846949"
       sodipodi:arc-type="arc"
       transform="scale(1,-1)"
       sodipodi:open="true"
       d="m 15.234709,-16.419634 a 11.515402,7.9141383 0 0 1 -3.184416,5.920857 11.515402,7.9141383 0 0 1 -8.4728758,2.4367138" />
    <path
       style="fill:none;stroke:none;stroke-width:0.264583px;stroke-linecap:butt;stroke-linejoin:miter;stroke-opacity:1"
       d="M 0.87933016,32.096175 12.142558,31.116934 h 5.800361 l 5.62498,1.484934 h 5.77281 v 0"
       id="path14888" />
    <path
       style="fill:none;stroke:none;stroke-width:0;stroke-linecap:butt;stroke-linejoin:miter;stroke-opacity:1;stroke-miterlimit:4;stroke-dasharray:none"
       d="M 3.5774172,8.0620631 3.8658429,32.743574"
       id="path15021" />
    <path
       style="fill:#ffaaaa;fill-opacity:1;stroke:none;stroke-width:1.55057;stroke-miterlimit:4;stroke-dasharray:none;stroke-dashoffset:73.9276;stroke-opacity:1"
       d="M 9.5365134,118.12662 C 8.2019232,117.31288 6.846061,115.33051 6.3014503,113.39671 6.01783,112.38963 5.936805,101.74234 6.0115878,75.306595 l 0.103797,-36.692308 0.8220363,-1.669392 c 1.0064132,-2.043823 2.7067381,-3.398436 4.5813649,-3.649876 l 1.410885,-0.18924 v 3.968768 c 0,5.805554 0.643753,59.580214 0.856155,71.517213 l 0.181876,10.22143 -1.65473,-0.001 c -1.025653,-7e-4 -2.081176,-0.26132 -2.7764586,-0.68526 z"
       id="path15315"
       transform="scale(0.26458333)" />
    <path
       style="fill:#ff8080;fill-opacity:1;stroke:none;stroke-width:1.55057;stroke-miterlimit:4;stroke-dasharray:none;stroke-dashoffset:73.9276;stroke-opacity:1"
       d="M 15.245396,116.62912 C 15.087973,114.78118 14.295161,46.117941 14.319389,36.430221 l 0.0081,-3.232418 h 1.409026 c 2.71388,0 4.792963,1.50715 6.204461,4.497681 0.551078,1.167567 0.606171,4.125242 0.693952,37.255158 0.06532,24.651979 -0.02289,36.556488 -0.280057,37.795238 -0.725661,3.49549 -3.213129,6.06731 -5.868314,6.06731 -1.041428,0 -1.057497,-0.0283 -1.241145,-2.18407 z"
       id="path15428"
       transform="scale(0.26458333)" />
    <path
       style="fill:none;fill-opacity:1;stroke:none;stroke-width:0;stroke-miterlimit:4;stroke-dasharray:none;stroke-dashoffset:73.9276;stroke-opacity:1"
       d="m 25.685107,118.2194 c 0.144988,-0.34611 0.597323,-1.41555 1.005188,-2.37654 0.740576,-1.7449 0.741574,-1.79852 0.741574,-39.837363 V 37.915386 l -0.766026,-1.86971 -0.766025,-1.869709 1.290201,0.233647 c 0.709611,0.128506 2.886524,0.763752 4.837584,1.411657 12.813334,4.255034 21.287024,12.39419 22.960961,22.054483 l 0.188881,1.090038 -2.34092,0.168716 c -2.840316,0.204707 -5.353574,1.382606 -7.118638,3.336322 -2.502343,2.769793 -2.41833,1.761331 -2.30916,27.718515 l 0.09787,23.269565 1.088317,1.75049 1.088317,1.75049 -9.300405,0.77064 c -5.115223,0.42385 -9.674114,0.84883 -10.130868,0.9444 -0.692432,0.14488 -0.786648,0.0692 -0.566849,-0.45553 z"
       id="path15730"
       transform="scale(0.26458333)" />
    <path
       style="fill:#ffaaaa;fill-opacity:1;stroke:none;stroke-width:0;stroke-miterlimit:4;stroke-dasharray:none;stroke-dashoffset:73.9276;stroke-opacity:1"
       d="m 25.685107,118.2194 c 0.144988,-0.34611 0.597323,-1.41555 1.005188,-2.37654 0.740576,-1.7449 0.741574,-1.79852 0.741574,-39.837363 V 37.915386 l -0.766026,-1.86971 -0.766025,-1.869709 1.290201,0.233647 c 0.709611,0.128506 2.886524,0.763752 4.837584,1.411657 12.813334,4.255034 21.287024,12.39419 22.960961,22.054483 l 0.188881,1.090038 -2.34092,0.168716 c -2.840316,0.204707 -5.353574,1.382606 -7.118638,3.336322 -2.502343,2.769793 -2.41833,1.761331 -2.30916,27.718515 l 0.09787,23.269565 1.088317,1.75049 1.088317,1.75049 -9.300405,0.77064 c -5.115223,0.42385 -9.674114,0.84883 -10.130868,0.9444 -0.692432,0.14488 -0.786648,0.0692 -0.566849,-0.45553 z"
       id="path15769"
       transform="scale(0.26458333)" />
    <path
       style="fill:#4da7b7;fill-opacity:1;stroke:none;stroke-width:0;stroke-miterlimit:4;stroke-dasharray:none;stroke-dashoffset:73.9276;stroke-opacity:1"
       d="m 94.080184,119.07092 c -0.408511,-0.43484 -1.104246,-1.57492 -1.546079,-2.53351 l -0.803333,-1.7429 V 77.403299 c 0,-41.270136 -0.154747,-38.321015 2.154812,-41.065771 1.261343,-1.49902 2.775851,-2.091373 5.347151,-2.091373 h 2.107925 v 42.807693 42.807692 h -3.258864 c -2.933053,0 -3.333124,-0.079 -4.001612,-0.79062 z"
       id="path16359"
       transform="scale(0.26458333)" />
    <path
       style="fill:#00ffff;fill-opacity:1;stroke:none;stroke-width:0;stroke-miterlimit:4;stroke-dasharray:none;stroke-dashoffset:73.9276;stroke-opacity:1"
       d="M 102.73846,77.062497 V 34.263453 l 0.96099,0.362235 c 1.55285,0.58533 3.18283,2.417747 3.93217,4.42053 0.68138,1.821153 0.69805,2.736096 0.69805,38.306763 0,40.142869 0.0718,38.762289 -2.1479,41.290409 -0.82726,0.94219 -1.33843,1.21815 -2.25643,1.21815 h -1.18688 z"
       id="path20024"
       transform="scale(0.26458333)" />
    <path
       style="fill:#4da7b7;fill-opacity:1;stroke:none;stroke-width:0;stroke-miterlimit:4;stroke-dasharray:none;stroke-dashoffset:73.9276;stroke-opacity:1"
       d="m 64.521505,119.18973 c 2.034862,-0.924 4.139664,-2.93286 5.0861,-4.85425 l 0.806683,-1.63767 V 89.60947 66.521134 L 69.355435,64.44903 c -1.369362,-2.679751 -3.936048,-4.54193 -7.085123,-5.140387 -2.447683,-0.465163 -2.494117,-0.563369 -1.688617,-3.571279 1.648177,-6.154641 7.245507,-12.066851 15.200843,-16.055973 2.875187,-1.441732 10.260059,-4.024352 11.530126,-4.032288 0.643106,-0.004 0.77141,0.128904 0.585324,0.606392 -1.240032,3.181878 -1.251806,3.612597 -1.154507,42.234392 l 0.09498,37.702423 0.781164,1.83462 0.781165,1.83461 -12.662484,-0.008 -12.662483,-0.008 1.445679,-0.65647 z"
       id="path20254"
       transform="scale(0.26458333)" />
  </g>
</svg>
