<?xml version="1.0" encoding="UTF-8" standalone="no"?>
<!-- Created with Inkscape (http://www.inkscape.org/) -->

<svg
   width="40"
   height="40"
   viewBox="0 0 10.583333 10.583334"
   version="1.1"
   id="svg5"
   xmlns="http://www.w3.org/2000/svg"
   xmlns:svg="http://www.w3.org/2000/svg">
  <defs
     id="defs2" />
  <rect
     style="opacity:0.954195;fill:#00ffff;stroke:#539a9a;stroke-width:1.3112;stroke-linejoin:round"
     id="rect463"
     width="3.9804657"
     height="3.9804645"
     x="5.9472675"
     y="0.65560067" />
  <ellipse
     style="opacity:0.954195;fill:#00ffff;stroke:#539a9a;stroke-width:1.09453;stroke-linejoin:round"
     id="path615"
     cx="2.6458335"
     cy="7.9374981"
     rx="2.098572"
     ry="2.0985701" />
  <path
     style="opacity:0.954195;fill:#00ffff;stroke:#539a9a;stroke-width:3.78;stroke-linejoin:round"
     id="path745"
     d="m 33.224653,30.756202 c -0.429748,0.341342 -5.657348,-2.936759 -6.206004,-2.92361 -0.563669,0.01351 -5.798049,3.534083 -6.268,3.222552 -0.457435,-0.303233 1.044807,-6.287965 0.862758,-6.805705 -0.18703,-0.531907 -5.152809,-4.422181 -5.001748,-4.965399 0.147037,-0.52875 6.303073,-0.949418 6.739217,-1.282547 0.448078,-0.342244 2.613439,-6.267141 3.17675,-6.291338 0.548308,-0.02355 2.850707,5.701193 3.302307,6.013048 0.463958,0.320388 6.768003,0.548875 6.965088,1.077138 0.191836,0.514194 -4.54124,4.472949 -4.69828,4.998815 -0.161336,0.540255 1.569418,6.606365 1.127912,6.957046 z"
     transform="matrix(-0.22001122,0,0,0.22504801,13.813223,3.0776914)" />
  <path
     style="opacity:0.954195;fill:#00ffff;stroke:#539a9a;stroke-width:3.78;stroke-linejoin:round"
     id="path745-3"
     transform="matrix(-0.22001122,0,0,0.22504801,8.5173929,-2.2098074)"
     d="m 33.224653,30.756202 c -0.429748,0.341342 -5.657348,-2.936759 -6.206004,-2.92361 -0.563669,0.01351 -5.798049,3.534083 -6.268,3.222552 -0.457435,-0.303233 1.044807,-6.287965 0.862758,-6.805705 -0.18703,-0.531907 -5.152809,-4.422181 -5.001748,-4.965399 0.147037,-0.52875 6.303073,-0.949418 6.739217,-1.282547 0.448078,-0.342244 2.613439,-6.267141 3.17675,-6.291338 0.548308,-0.02355 2.850707,5.701193 3.302307,6.013048 0.463958,0.320388 6.768003,0.548875 6.965088,1.077138 0.191836,0.514194 -4.54124,4.472949 -4.69828,4.998815 -0.161336,0.540255 1.569418,6.606365 1.127912,6.957046 z" />
</svg>
