<?xml version="1.0" encoding="UTF-8" standalone="no"?>
<!-- Created with Inkscape (http://www.inkscape.org/) -->

<svg
   width="40"
   height="40"
   viewBox="0 0 10.583333 10.583334"
   version="1.1"
   id="svg5"
   xmlns="http://www.w3.org/2000/svg"
   xmlns:svg="http://www.w3.org/2000/svg">
  <defs
     id="defs2">
    <linearGradient
       id="linearGradient20179">
      <stop
         style="stop-color:#00ffff;stop-opacity:1;"
         offset="0"
         id="stop20175" />
      <stop
         style="stop-color:#00ffff;stop-opacity:0;"
         offset="1"
         id="stop20177" />
    </linearGradient>
  </defs>
  <ellipse
     style="fill:#ff9955;fill-opacity:0.942799;stroke-width:5.90171;stroke-linecap:round;stroke-linejoin:round"
     id="path939"
     cx="5.3385143"
     cy="3.8223085"
     rx="3.6690979"
     ry="3.8223085" />
  <rect
     style="fill:#ff9955;fill-opacity:1;stroke-width:1.5615;stroke-linecap:round;stroke-linejoin:round"
     id="rect1808"
     width="2.8128779"
     height="2.2675493"
     x="3.8368707"
     y="6.8293009" />
  <rect
     style="fill:#00ffff;fill-opacity:1;stroke-width:1.5615;stroke-linecap:round;stroke-linejoin:round"
     id="rect1876"
     width="10.583334"
     height="3.198036"
     x="0"
     y="8.7082138"
     ry="1.599018" />
  <path
     style="fill:#ff9955;fill-opacity:1;stroke-width:4.16;stroke-linecap:round;stroke-linejoin:round"
     id="path2212"
     d="m 20.850955,39.267716 c -0.547797,0.713909 -3.816289,-0.393585 -4.708451,-0.511037 -0.892161,-0.117451 -4.33592,0.106384 -4.680285,-0.724976 -0.344364,-0.831361 2.248999,-3.108211 2.796796,-3.822119 0.547797,-0.713909 2.07583,-3.80821 2.967991,-3.690758 0.892162,0.117452 1.56729,3.501796 1.911654,4.333156 0.344365,0.83136 2.260091,3.701826 1.712295,4.415734 z"
     transform="matrix(0.2179648,0.24794305,-0.3205872,0.17421667,12.998806,-1.012725)" />
  <ellipse
     style="fill:#803300;fill-opacity:1;stroke-width:1.10067;stroke-linecap:round;stroke-linejoin:round"
     id="path3198"
     cx="2.4265821"
     cy="1.6110401"
     rx="1.1251338"
     ry="1.1338216" />
  <ellipse
     style="fill:#803300;fill-opacity:1;stroke-width:1.10067;stroke-linecap:round;stroke-linejoin:round"
     id="path3198-3"
     cx="2.2360647"
     cy="2.7810047"
     rx="1.1251338"
     ry="1.1338216" />
  <ellipse
     style="fill:#803300;fill-opacity:1;stroke-width:1.10067;stroke-linecap:round;stroke-linejoin:round"
     id="path3198-3-62"
     cx="3.2552299"
     cy="1.0241513"
     rx="1.1251338"
     ry="1.1338216" />
  <ellipse
     style="fill:#803300;fill-opacity:1;stroke-width:1.10067;stroke-linecap:round;stroke-linejoin:round"
     id="path3198-3-62-9"
     cx="4.5586553"
     cy="0.74032789"
     rx="1.1251338"
     ry="1.1338216" />
  <ellipse
     style="fill:#803300;fill-opacity:1;stroke-width:1.10067;stroke-linecap:round;stroke-linejoin:round"
     id="path3198-3-62-9-1"
     cx="5.709218"
     cy="0.72674692"
     rx="1.1251338"
     ry="1.1338216" />
  <ellipse
     style="fill:#803300;fill-opacity:1;stroke-width:1.10067;stroke-linecap:round;stroke-linejoin:round"
     id="path3198-3-62-9-1-2"
     cx="6.5794888"
     cy="0.68811983"
     rx="1.1251338"
     ry="1.1338216" />
  <ellipse
     style="fill:#803300;fill-opacity:1;stroke-width:1.10067;stroke-linecap:round;stroke-linejoin:round"
     id="path3198-3-62-9-1-2-7"
     cx="7.1684632"
     cy="0.86644441"
     rx="1.1251338"
     ry="1.1338216" />
  <ellipse
     style="fill:#803300;fill-opacity:1;stroke-width:1.10067;stroke-linecap:round;stroke-linejoin:round"
     id="path3198-3-62-9-1-2-7-0"
     cx="7.4801803"
     cy="1.0489807"
     rx="1.1251338"
     ry="1.1338216" />
  <ellipse
     style="fill:#803300;fill-opacity:1;stroke-width:1.10067;stroke-linecap:round;stroke-linejoin:round"
     id="path3198-3-62-9-1-2-7-0-9"
     cx="8.2346077"
     cy="1.8350681"
     rx="1.1251338"
     ry="1.1338216" />
  <ellipse
     style="fill:#803300;fill-opacity:1;stroke-width:1.10067;stroke-linecap:round;stroke-linejoin:round"
     id="path3198-3-62-9-1-2-7-0-9-3"
     cx="8.5624018"
     cy="2.3777182"
     rx="1.1251338"
     ry="1.1338216" />
  <ellipse
     style="fill:#803300;fill-opacity:1;stroke-width:1.10067;stroke-linecap:round;stroke-linejoin:round"
     id="path3198-3-62-9-1-2-7-0-9-3-6"
     cx="8.7888975"
     cy="2.6667168"
     rx="1.1251338"
     ry="1.1338216" />
  <ellipse
     style="fill:#803300;fill-opacity:1;stroke-width:1.10067;stroke-linecap:round;stroke-linejoin:round"
     id="path3198-3-62-9-1-2-7-0-9-3-6-0"
     cx="8.9427576"
     cy="3.803901"
     rx="1.1251338"
     ry="1.1338216" />
  <ellipse
     style="fill:#803300;fill-opacity:1;stroke-width:1.10067;stroke-linecap:round;stroke-linejoin:round"
     id="path3198-3-62-9-1-2-7-0-9-3-6-0-6"
     cx="8.8101759"
     cy="4.888062"
     rx="1.1251338"
     ry="1.1338216" />
  <ellipse
     style="fill:#803300;fill-opacity:1;stroke-width:1.10067;stroke-linecap:round;stroke-linejoin:round"
     id="path3198-3-62-9-1-2-7-0-9-3-6-0-6-2"
     cx="8.7675648"
     cy="6.1213017"
     rx="1.1251338"
     ry="1.1338216" />
  <ellipse
     style="fill:#803300;fill-opacity:1;stroke-width:1.10067;stroke-linecap:round;stroke-linejoin:round"
     id="path3198-3-62-9-1-2-7-0-9-3-6-0-6-2-6"
     cx="8.8935375"
     cy="7.4762635"
     rx="1.1251338"
     ry="1.1338216" />
  <ellipse
     style="fill:#803300;fill-opacity:1;stroke-width:1.10067;stroke-linecap:round;stroke-linejoin:round"
     id="path3198-3-62-9-1-2-7-0-9-3-6-0-6-2-6-1"
     cx="8.901576"
     cy="7.7372346"
     rx="1.1251338"
     ry="1.1338216" />
  <ellipse
     style="fill:#803300;fill-opacity:1;stroke-width:1.10067;stroke-linecap:round;stroke-linejoin:round"
     id="path3198-3-6"
     cx="2.1252892"
     cy="4.2599692"
     rx="1.1251338"
     ry="1.1338216" />
  <ellipse
     style="fill:#803300;fill-opacity:1;stroke-width:1.10067;stroke-linecap:round;stroke-linejoin:round"
     id="path3198-3-6-7"
     cx="2.0765214"
     cy="5.627718"
     rx="1.1251338"
     ry="1.1338216" />
  <ellipse
     style="fill:#803300;fill-opacity:1;stroke-width:1.10067;stroke-linecap:round;stroke-linejoin:round"
     id="path3198-3-6-7-5"
     cx="2.1408854"
     cy="5.8217053"
     rx="1.1251338"
     ry="1.1338216" />
  <ellipse
     style="fill:#803300;fill-opacity:1;stroke-width:1.10067;stroke-linecap:round;stroke-linejoin:round"
     id="path3198-3-6-7-5-3"
     cx="2.228801"
     cy="7.2333603"
     rx="1.1251338"
     ry="1.1338216" />
  <path
     style="fill:#ffffff;fill-opacity:1;stroke-width:4.16;stroke-linecap:round;stroke-linejoin:round"
     id="path3044"
     transform="matrix(0.23624015,0.11914251,-0.11914251,0.23624015,4.5735714,-2.2320945)"
     d="m 22.264288,16.093298 c -0.795404,0.858858 -4.065812,-3.292576 -5.235552,-3.247706 -1.16974,0.04487 -4.112522,4.43463 -4.971381,3.639226 -0.858858,-0.795404 3.292576,-4.065811 3.247706,-5.235551 -0.04487,-1.169741 -4.43463,-4.1125226 -3.639226,-4.9713812 0.795404,-0.8588585 4.065811,3.2925752 5.235551,3.247706 1.169741,-0.044869 4.112522,-4.4346302 4.971381,-3.6392264 0.858859,0.7954038 -3.292575,4.0658114 -3.247706,5.2355516 0.04487,1.16974 4.43463,4.112522 3.639227,4.971381 z" />
</svg>
